<svg width="16" height="17" viewBox="0 0 16 17" fill="none" xmlns="http://www.w3.org/2000/svg">
<path d="M4 8.52053C4 8.36036 4.06363 8.20675 4.17689 8.09349C4.29014 7.98024 4.44375 7.91661 4.60393 7.91661H7.41661V5.10393C7.41661 4.94375 7.48024 4.79014 7.59349 4.67689C7.70675 4.56363 7.86036 4.5 8.02053 4.5C8.18071 4.5 8.33432 4.56363 8.44757 4.67689C8.56083 4.79014 8.62446 4.94375 8.62446 5.10393V7.91661H11.4371C11.5973 7.91661 11.7509 7.98024 11.8642 8.09349C11.9774 8.20675 12.0411 8.36036 12.0411 8.52053C12.0411 8.68071 11.9774 8.83432 11.8642 8.94757C11.7509 9.06083 11.5973 9.12446 11.4371 9.12446H8.62446V11.9371C8.62446 12.0973 8.56083 12.2509 8.44757 12.3642C8.33432 12.4774 8.18071 12.5411 8.02053 12.5411C7.86036 12.5411 7.70675 12.4774 7.59349 12.3642C7.48024 12.2509 7.41661 12.0973 7.41661 11.9371V9.12446H4.60393C4.44375 9.12446 4.29014 9.06083 4.17689 8.94757C4.06363 8.83432 4 8.68071 4 8.52053Z" fill="#428C71"/>
<path fill-rule="evenodd" clip-rule="evenodd" d="M4.05419 1.70838C6.56045 1.43054 9.08975 1.43054 11.596 1.70838C13.0672 1.87265 14.2549 3.03138 14.4272 4.51059C14.7252 7.05272 14.7252 9.62061 14.4272 12.1627C14.2541 13.6419 13.0664 14.7999 11.596 14.9649C9.08975 15.2428 6.56045 15.2428 4.05419 14.9649C2.58302 14.7999 1.3953 13.6419 1.22298 12.1627C0.925672 9.62069 0.925672 7.05264 1.22298 4.51059C1.3953 3.03138 2.58383 1.87265 4.05419 1.70838ZM11.4623 2.90818C9.04492 2.64022 6.60528 2.64022 4.18786 2.90818C3.74034 2.95783 3.32263 3.15689 3.00221 3.47322C2.68179 3.78955 2.47737 4.20467 2.42198 4.65151C2.13559 7.1002 2.13559 9.57393 2.42198 12.0226C2.47754 12.4693 2.68203 12.8842 3.00244 13.2004C3.32284 13.5166 3.74046 13.7155 4.18786 13.7652C6.58504 14.0325 9.06516 14.0325 11.4623 13.7652C11.9096 13.7154 12.327 13.5163 12.6473 13.2002C12.9675 12.884 13.1719 12.4692 13.2274 12.0226C13.5138 9.57393 13.5138 7.1002 13.2274 4.65151C13.1717 4.20508 12.9673 3.79043 12.647 3.47444C12.3268 3.15844 11.9095 2.95953 11.4623 2.90979" fill="#428C71"/>
</svg>
